REM DIRINDEX 1\2\4,1\2\5,1\2\6,1\3\7,1\3\8,1\3\9,1\3\10
REM DIRNAME folder01,folder02,folder03,folder04,folder05,folder06,folder07,folder08,folder09,folder10
TITLE ""
FILE "a_54.mp3" MP3
  TRACK 01 AUDIO
    TITLE "0:"
    INDEX 01 00:00:00
  TRACK 02 AUDIO
    TITLE "6:cjc058_1563"
    INDEX 01 00:00:15
  TRACK 03 AUDIO
    TITLE "0:"
    INDEX 01 00:02:40
  TRACK 04 AUDIO
    TITLE "4:cjc058_1564"
    INDEX 01 00:03:06
  TRACK 05 AUDIO
    TITLE "0:"
    INDEX 01 00:04:56
  TRACK 06 AUDIO
    TITLE "5:cjc058_1565"
    INDEX 01 00:05:10
  TRACK 07 AUDIO
    TITLE "0:"
    INDEX 01 00:08:26
  TRACK 08 AUDIO
    TITLE "4:cjc058_1566"
    INDEX 01 00:09:26
  TRACK 09 AUDIO
    TITLE "0:"
    INDEX 01 00:10:53
  TRACK 10 AUDIO
    TITLE "5:cjc058_1567"
    INDEX 01 00:11:05
  TRACK 11 AUDIO
    TITLE "0:"
    INDEX 01 00:14:17
  TRACK 12 AUDIO
    TITLE "4:cjc058_1568"
    INDEX 01 00:15:17
  TRACK 13 AUDIO
    TITLE "0:"
    INDEX 01 00:16:44
  TRACK 14 AUDIO
    TITLE "5:cjc058_1569"
    INDEX 01 00:16:73
  TRACK 15 AUDIO
    TITLE "0:"
    INDEX 01 00:19:50
  TRACK 16 AUDIO
    TITLE "4:cjc058_1570"
    INDEX 01 00:20:51
  TRACK 17 AUDIO
    TITLE "0:"
    INDEX 01 00:22:05
  TRACK 18 AUDIO
    TITLE "5:cjc058_1571"
    INDEX 01 00:22:32
  TRACK 19 AUDIO
    TITLE "0:"
    INDEX 01 00:25:05
  TRACK 20 AUDIO
    TITLE "4:cjc058_1572"
    INDEX 01 00:26:07
  TRACK 21 AUDIO
    TITLE "0:"
    INDEX 01 00:27:67
  TRACK 22 AUDIO
    TITLE "5:cjc058_1573"
    INDEX 01 00:28:21
  TRACK 23 AUDIO
    TITLE "0:"
    INDEX 01 00:29:56
  TRACK 24 AUDIO
    TITLE "4:cjc058_1574"
    INDEX 01 00:30:57
  TRACK 25 AUDIO
    TITLE "0:"
    INDEX 01 00:32:41
  TRACK 26 AUDIO
    TITLE "5:cjc058_1575"
    INDEX 01 00:32:68
  TRACK 27 AUDIO
    TITLE "0:"
    INDEX 01 00:35:47
  TRACK 28 AUDIO
    TITLE "4:cjc058_1576"
    INDEX 01 00:36:48
  TRACK 29 AUDIO
    TITLE "0:"
    INDEX 01 00:38:31
  TRACK 30 AUDIO
    TITLE "5:cjc058_1577"
    INDEX 01 00:38:59
  TRACK 31 AUDIO
    TITLE "0:"
    INDEX 01 00:43:01
  TRACK 32 AUDIO
    TITLE "4:cjc058_1578"
    INDEX 01 00:44:07
  TRACK 33 AUDIO
    TITLE "0:"
    INDEX 01 00:46:19
  TRACK 34 AUDIO
    TITLE "5:cjc058_1579"
    INDEX 01 00:46:49
  TRACK 35 AUDIO
    TITLE "0:"
    INDEX 01 00:50:07
  TRACK 36 AUDIO
    TITLE "4:cjc058_1580"
    INDEX 01 00:51:11
  TRACK 37 AUDIO
    TITLE "0:"
    INDEX 01 00:52:53
  TRACK 38 AUDIO
    TITLE "5:cjc058_1581"
    INDEX 01 00:53:06
  TRACK 39 AUDIO
    TITLE "0:"
    INDEX 01 00:54:50
  TRACK 40 AUDIO
    TITLE "4:cjc058_1582"
    INDEX 01 00:55:51
  TRACK 41 AUDIO
    TITLE "0:"
    INDEX 01 00:57:56
  TRACK 42 AUDIO
    TITLE "5:cjc058_1583"
    INDEX 01 00:58:09
  TRACK 43 AUDIO
    TITLE "0:"
    INDEX 01 00:59:71
  TRACK 44 AUDIO
    TITLE "4:cjc058_1584"
    INDEX 01 01:00:72
  TRACK 45 AUDIO
    TITLE "0:"
    INDEX 01 01:02:38
  TRACK 46 AUDIO
    TITLE "5:cjc058_1585"
    INDEX 01 01:02:65
  TRACK 47 AUDIO
    TITLE "0:"
    INDEX 01 01:05:40
  TRACK 48 AUDIO
    TITLE "4:cjc058_1586"
    INDEX 01 01:06:38
  TRACK 49 AUDIO
    TITLE "0:"
    INDEX 01 01:07:72
  TRACK 50 AUDIO
    TITLE "5:cjc058_1587"
    INDEX 01 01:08:25
  TRACK 51 AUDIO
    TITLE "0:"
    INDEX 01 01:11:02
  TRACK 52 AUDIO
    TITLE "4:cjc058_1588"
    INDEX 01 01:12:03
  TRACK 53 AUDIO
    TITLE "0:"
    INDEX 01 01:13:71
  TRACK 54 AUDIO
    TITLE "5:cjc058_1589"
    INDEX 01 01:14:19
  TRACK 55 AUDIO
    TITLE "0:"
    INDEX 01 01:16:07
  TRACK 56 AUDIO
    TITLE "4:cjc058_1590"
    INDEX 01 01:17:08
  TRACK 57 AUDIO
    TITLE "0:"
    INDEX 01 01:19:01
  TRACK 58 AUDIO
    TITLE "5:cjc058_1591"
    INDEX 01 01:19:27
  TRACK 59 AUDIO
    TITLE "0:"
    INDEX 01 01:22:62
  TRACK 60 AUDIO
    TITLE "4:cjc058_1592"
    INDEX 01 01:23:65
  TRACK 61 AUDIO
    TITLE "0:"
    INDEX 01 01:25:35
  TRACK 62 AUDIO
    TITLE "5:cjc058_1593"
    INDEX 01 01:25:62
  TRACK 63 AUDIO
    TITLE "0:"
    INDEX 01 01:29:29
